<svg id="ServiCentroDigital_Logo" xmlns="http://www.w3.org/2000/svg" width="102" height="30" viewBox="0 0 102 30">
	<defs>
		<style>
			.cls-1, .cls-4 {
				fill: #fff;
			}

			.cls-2 {
				fill: #2a3038;
			}

			.cls-2, .cls-3, .cls-4 {
				fill-rule: evenodd;
			}

			.cls-3 {
				fill: #43b02e;
			}
		</style>
	</defs>
	<rect id="Ovalo" class="cls-1" width="102" height="30" rx="15" ry="15"/>
	<path id="C" class="cls-2" d="M1222.76,799.427a6.958,6.958,0,1,1,0-13.912h10.64l-2.41,4.376h-8.23a2.581,2.581,0,1,0,0,5.16h5.44l-2.41,4.376h-3.03Z" transform="translate(-1204 -782)"/>
	<path id="Diagonal" class="cls-3" d="M1235.22,785.515h5.08l-12.86,23.447h-5.08Z" transform="translate(-1204 -782)"/>
	<path id="D" class="cls-2" d="M1241.17,808.962a6.958,6.958,0,1,0,0-13.911h-4.26l-2.41,4.376h6.67a2.581,2.581,0,1,1,0,5.16h-4.42l1.86-3.385h-5.08l-4.27,7.76h11.91Z" transform="translate(-1204 -782)"/>
	<path id="Flecha_Derecha" class="cls-2" d="M1242.16,785.515l6.14,3.881-10.41,3.88Z" transform="translate(-1204 -782)"/>
	<path id="Flecha_Izquierda" class="cls-2" d="M1214.36,805.082l10.45-3.88-4.27,7.76Z" transform="translate(-1204 -782)"/>
	<path id="Franja" class="cls-3" d="M1290.33,794.143a4.315,4.315,0,1,0,0-8.628h-45.38l6.69,4.211-11.85,4.417h50.54Z" transform="translate(-1204 -782)"/>
	<path id="ServiCentro" class="cls-4" d="M1268.7,786.75a0.594,0.594,0,1,1-.61.594A0.607,0.607,0,0,1,1268.7,786.75Zm-13.27,4.611a1.047,1.047,0,0,1-.61.156,0.86,0.86,0,0,1-1.06-.865h-1.11a1.507,1.507,0,0,0,.27.89,1.763,1.763,0,0,0,.77.605,2.83,2.83,0,0,0,1.13.22,2.332,2.332,0,0,0,1.41-.385,1.252,1.252,0,0,0,.53-1.064,1.337,1.337,0,0,0-.43-1.019,3.432,3.432,0,0,0-1.37-.685,3.206,3.206,0,0,1-.78-0.323,0.51,0.51,0,0,1-.26-0.427,0.519,0.519,0,0,1,.22-0.44,1.042,1.042,0,0,1,.63-0.167,0.956,0.956,0,0,1,.65.2,0.682,0.682,0,0,1,.24.557h1.1a1.437,1.437,0,0,0-.25-0.839,1.585,1.585,0,0,0-.7-0.572,2.444,2.444,0,0,0-1.02-.2,2.738,2.738,0,0,0-1.03.186,1.6,1.6,0,0,0-.7.519,1.256,1.256,0,0,0-.24.755,1.442,1.442,0,0,0,.91,1.295,5.222,5.222,0,0,0,.91.357,2.965,2.965,0,0,1,.79.345,0.54,0.54,0,0,1,.22.468A0.5,0.5,0,0,1,1255.43,791.361Zm4.74,0.822a1.623,1.623,0,0,0,.65-0.515l-0.52-.571a1.156,1.156,0,0,1-.96.434,0.924,0.924,0,0,1-.97-0.839h2.53v-0.424a1.977,1.977,0,0,0-.47-1.424,1.662,1.662,0,0,0-1.28-.5,1.883,1.883,0,0,0-.97.249,1.734,1.734,0,0,0-.66.711,2.354,2.354,0,0,0-.23,1.045v0.1a1.86,1.86,0,0,0,.55,1.395,1.985,1.985,0,0,0,1.43.524A2.146,2.146,0,0,0,1260.17,792.183Zm-0.5-2.816a0.8,0.8,0,0,1,.19.535v0.083h-1.48a1.1,1.1,0,0,1,.25-0.6,0.67,0.67,0,0,1,.52-0.209A0.694,0.694,0,0,1,1259.67,789.367Zm4.09-.979a1.211,1.211,0,0,0-.33-0.046,0.987,0.987,0,0,0-.89.534l-0.03-.462h-1V792.3h1.06v-2.541a0.78,0.78,0,0,1,.79-0.4,2.9,2.9,0,0,1,.38.029Zm1.31,0.026h-1.11l1.34,3.882h1.02l1.34-3.882h-1.11l-0.74,2.615Zm4.17-.009h-1.06v3.88h1.06v-3.88Zm4.05,2.15a0.986,0.986,0,0,1-.29.705,1.086,1.086,0,0,1-.76.228,0.931,0.931,0,0,1-.83-0.391,2.317,2.317,0,0,1-.26-1.238v-0.394a2.1,2.1,0,0,1,.28-1.2,0.948,0.948,0,0,1,.83-0.386,0.9,0.9,0,0,1,1.04.962h1.1a1.959,1.959,0,0,0-.65-1.36,2.485,2.485,0,0,0-2.67-.177,1.982,1.982,0,0,0-.78.88,3.091,3.091,0,0,0-.27,1.328v0.319a2.747,2.747,0,0,0,.59,1.857,2.028,2.028,0,0,0,1.62.676,2.292,2.292,0,0,0,1.52-.484,1.877,1.877,0,0,0,.64-1.328h-1.11Zm4.5,1.628a1.591,1.591,0,0,0,.64-0.515l-0.52-.571a1.156,1.156,0,0,1-.96.434,0.94,0.94,0,0,1-.65-0.229,0.959,0.959,0,0,1-.32-0.61h2.54v-0.424a2.022,2.022,0,0,0-.47-1.424,1.67,1.67,0,0,0-1.29-.5,1.846,1.846,0,0,0-.96.249,1.612,1.612,0,0,0-.66.711,2.225,2.225,0,0,0-.23,1.045v0.1a1.824,1.824,0,0,0,.55,1.395,1.961,1.961,0,0,0,1.42.524A2.226,2.226,0,0,0,1277.79,792.183Zm-0.51-2.816a0.708,0.708,0,0,1,.19.535v0.083H1276a1.027,1.027,0,0,1,.25-0.6,0.663,0.663,0,0,1,.51-0.209A0.679,0.679,0,0,1,1277.28,789.367Zm1.82-.953V792.3h1.06v-2.738a0.745,0.745,0,0,1,.68-0.373,0.646,0.646,0,0,1,.48.149,0.653,0.653,0,0,1,.15.479V792.3h1.06v-2.508a1.67,1.67,0,0,0-.31-1.084,1.176,1.176,0,0,0-.94-0.362,1.42,1.42,0,0,0-1.15.52l-0.03-.448h-1Zm4.45-.955v0.955h-0.58v0.76h0.58v2.092a1,1,0,0,0,1.14,1.1,2.232,2.232,0,0,0,.64-0.093v-0.786a1.661,1.661,0,0,1-.31.025,0.412,0.412,0,0,1-.32-0.093,0.434,0.434,0,0,1-.09-0.308v-1.938h0.68v-0.76h-0.68v-0.955h-1.06Zm4.58,0.929a1.111,1.111,0,0,0-.33-0.046,0.983,0.983,0,0,0-.88.534l-0.03-.462h-1.01V792.3h1.07v-2.541a0.78,0.78,0,0,1,.79-0.4,2.9,2.9,0,0,1,.38.029Zm0.2,1.977a2,2,0,0,0,.52,1.464,2.011,2.011,0,0,0,2.74,0,2,2,0,0,0,.51-1.433v-0.266a1.907,1.907,0,0,0-.57-1.305,1.844,1.844,0,0,0-1.32-.481,1.94,1.94,0,0,0-.99.247,1.618,1.618,0,0,0-.66.7,2.282,2.282,0,0,0-.23,1.03v0.046Zm1.28-.891a0.765,0.765,0,0,1,1.21,0,1.373,1.373,0,0,1,.22.841,1.517,1.517,0,0,1-.22.925,0.7,0.7,0,0,1-.6.289,0.71,0.71,0,0,1-.61-0.293,1.439,1.439,0,0,1-.21-0.846A1.6,1.6,0,0,1,1289.61,789.474Z" transform="translate(-1204 -782)"/>
	<path id="Digital" class="cls-2" d="M1262.19,795.594a1.219,1.219,0,1,1-1.25,1.218A1.234,1.234,0,0,1,1262.19,795.594Zm13.08,0a1.219,1.219,0,1,1-1.24,1.218A1.223,1.223,0,0,1,1275.27,795.594Zm-20.89,11.48a5.376,5.376,0,0,0,2.63-.656,4.57,4.57,0,0,0,1.8-1.828,5.624,5.624,0,0,0,.64-2.692v-0.5a5.581,5.581,0,0,0-.65-2.7,4.612,4.612,0,0,0-1.81-1.835,5.311,5.311,0,0,0-2.63-.645h-3.42v10.859h3.44Zm-0.02-9.047a2.523,2.523,0,0,1,2.06.854,3.864,3.864,0,0,1,.7,2.51v0.574a3.832,3.832,0,0,1-.72,2.454,2.529,2.529,0,0,1-2.06.857h-1.11v-7.249h1.13ZM1263.3,799h-2.22v8.07h2.22V799Zm1.5,4.065a4.615,4.615,0,0,0,.92,3.017,2.951,2.951,0,0,0,2.41,1.137,2.585,2.585,0,0,0,2.01-.843v0.433a1.683,1.683,0,0,1-.49,1.3,1.926,1.926,0,0,1-1.37.459,2.615,2.615,0,0,1-2-.9l-0.98,1.313a3.165,3.165,0,0,0,1.31.914,4.584,4.584,0,0,0,1.77.354,5.028,5.028,0,0,0,2.1-.41,3.17,3.17,0,0,0,1.38-1.194,3.376,3.376,0,0,0,.5-1.842V799h-2.01l-0.09.761a2.6,2.6,0,0,0-2.12-.91,2.972,2.972,0,0,0-2.44,1.134,4.669,4.669,0,0,0-.9,2.991v0.089Zm2.66-1.826a1.452,1.452,0,0,1,1.25-.635,1.542,1.542,0,0,1,1.43.739v3.4a1.544,1.544,0,0,1-1.45.739,1.437,1.437,0,0,1-1.23-.623,2.9,2.9,0,0,1-.45-1.722A3.28,3.28,0,0,1,1267.46,801.243Zm8.92-2.239h-2.21v8.07h2.21V799Zm2.26-1.983V799h-1.21v1.581h1.21v4.348a2.084,2.084,0,0,0,2.37,2.29,4.706,4.706,0,0,0,1.34-.194V805.4a3.642,3.642,0,0,1-.65.052,0.925,0.925,0,0,1-.68-0.194,0.986,0.986,0,0,1-.17-0.641v-4.028h1.41V799h-1.41v-1.983h-2.21Zm11.88,10.053a4.192,4.192,0,0,1-.33-1.865v-3.5a2.589,2.589,0,0,0-.9-2.107,3.677,3.677,0,0,0-2.43-.75,4.616,4.616,0,0,0-1.81.34,2.968,2.968,0,0,0-1.26.936,2.16,2.16,0,0,0-.44,1.3h2.21a0.877,0.877,0,0,1,.31-0.716,1.372,1.372,0,0,1,.88-0.261,1.185,1.185,0,0,1,.93.336,1.339,1.339,0,0,1,.29.895v0.462h-1.01a4.9,4.9,0,0,0-2.82.694,2.265,2.265,0,0,0-.98,1.969,2.193,2.193,0,0,0,.8,1.73,3.013,3.013,0,0,0,2.02.686,2.691,2.691,0,0,0,2.08-.873,2.243,2.243,0,0,0,.23.724h2.23Zm-4.86-1.76a0.866,0.866,0,0,1-.29-0.664l0.01-.127q0.105-1.119,1.77-1.118h0.82v1.387a1.371,1.371,0,0,1-.61.57,1.9,1.9,0,0,1-.9.213A1.164,1.164,0,0,1,1285.66,805.314Zm8.56-9.695H1292v11.455h2.22V795.619Z" transform="translate(-1204 -782)"/>
</svg>
